<?xml version="1.0" encoding="UTF-8"?>
<svg id="Calque_2" data-name="Calque 2" xmlns="http://www.w3.org/2000/svg" viewBox="0 0 63.28 63.28">
  <defs>
    <style>
      .cls-1 {
        fill: #06f;
        stroke-width: 0px;
      }
    </style>
  </defs>
  <g id="Capa_1" data-name="Capa 1">
    <g>
      <path class="cls-1" d="m32.21,0C15.06,0,1.15,13.8,1.15,30.82c0,5.82,1.63,11.27,4.45,15.91L0,63.28l17.2-5.46c4.45,2.44,9.57,3.83,15.01,3.83,17.16,0,31.07-13.8,31.07-30.82S49.37,0,32.21,0Zm0,56.74c-5.3,0-10.24-1.58-14.37-4.28l-10.03,3.19,3.26-9.62c-3.13-4.27-4.97-9.52-4.97-15.19,0-14.29,11.71-25.92,26.11-25.92s26.12,11.62,26.12,25.91c0,14.29-11.72,25.91-26.12,25.91Z"/>
      <path class="cls-1" d="m32.24,15.53c4.13,0,8.01,1.59,10.92,4.49,2.91,2.89,4.51,6.72,4.51,10.8s-1.6,7.92-4.51,10.8c-2.92,2.9-6.79,4.49-10.92,4.49s-8.01-1.59-10.92-4.49c-2.91-2.89-4.51-6.72-4.51-10.8s1.6-7.92,4.51-10.8c2.92-2.9,6.79-4.49,10.92-4.49m0-4.75c-11.14,0-20.18,8.97-20.18,20.04s9.03,20.04,20.18,20.04,20.18-8.97,20.18-20.04-9.03-20.04-20.18-20.04h0Z"/>
      <path class="cls-1" d="m32.24,25.26c3.14,0,5.7,2.5,5.7,5.56s-2.56,5.56-5.7,5.56-5.7-2.5-5.7-5.56,2.56-5.56,5.7-5.56m0-4.75c-5.76,0-10.45,4.63-10.45,10.31s4.69,10.31,10.45,10.31,10.45-4.63,10.45-10.31-4.69-10.31-10.45-10.31h0Z"/>
    </g>
  </g>
</svg>