<?xml version="1.0" encoding="UTF-8"?>
<svg id="Calque_2" data-name="Calque 2" xmlns="http://www.w3.org/2000/svg" viewBox="0 0 532.14 63.28">
  <defs>
    <style>
      .cls-1 {
        fill: #06f;
        stroke-width: 0px;
      }
    </style>
  </defs>
  <g id="Capa_1" data-name="Capa 1">
    <g>
      <g>
        <path class="cls-1" d="m32.21,0C15.06,0,1.15,13.8,1.15,30.82c0,5.82,1.63,11.27,4.45,15.91L0,63.28l17.2-5.46c4.45,2.44,9.57,3.83,15.01,3.83,17.16,0,31.07-13.8,31.07-30.82S49.37,0,32.21,0Zm0,56.74c-5.3,0-10.24-1.58-14.37-4.28l-10.03,3.19,3.26-9.62c-3.13-4.27-4.97-9.52-4.97-15.19,0-14.29,11.71-25.92,26.11-25.92s26.12,11.62,26.12,25.91c0,14.29-11.72,25.91-26.12,25.91Z"/>
        <path class="cls-1" d="m32.24,15.53c4.13,0,8.01,1.59,10.92,4.49,2.91,2.89,4.51,6.72,4.51,10.8s-1.6,7.92-4.51,10.8c-2.92,2.9-6.79,4.49-10.92,4.49s-8.01-1.59-10.92-4.49c-2.91-2.89-4.51-6.72-4.51-10.8s1.6-7.92,4.51-10.8c2.92-2.9,6.79-4.49,10.92-4.49m0-4.75c-11.14,0-20.18,8.97-20.18,20.04s9.03,20.04,20.18,20.04,20.18-8.97,20.18-20.04-9.03-20.04-20.18-20.04h0Z"/>
        <path class="cls-1" d="m32.24,25.26c3.14,0,5.7,2.5,5.7,5.56s-2.56,5.56-5.7,5.56-5.7-2.5-5.7-5.56,2.56-5.56,5.7-5.56m0-4.75c-5.76,0-10.45,4.63-10.45,10.31s4.69,10.31,10.45,10.31,10.45-4.63,10.45-10.31-4.69-10.31-10.45-10.31h0Z"/>
      </g>
      <g>
        <path class="cls-1" d="m94.92,49.64l-8.66-34.01h7.84c3.19,15.63,4.64,22.56,5.04,26.3h.05c1.29-6.25,4.58-18.09,6.56-26.3h6.61c1.75,6.52,5.19,19.72,6.3,25.95h.05c1.13-7.49,4.47-20.66,5.66-25.95h7.14l-9.21,34.01h-7.62c-1.79-7.53-4.78-18.52-5.98-24.35h-.05c-1.24,6.05-4.3,17.5-6.12,24.35h-7.61Z"/>
        <path class="cls-1" d="m141.88,13.63v13.49c1.12-1.65,3.19-3.61,7.31-3.61,4.76,0,8.55,2.82,8.55,9.74v16.38h-7.03v-15.32c0-3.32-1.18-5.08-4.14-5.08-3.93,0-4.7,2.92-4.7,6.86v13.55h-7.07V13.63h7.07Z"/>
        <path class="cls-1" d="m184.99,43.05c0,2.43.2,5.98.35,6.6h-6.75c-.2-.5-.35-1.85-.36-2.5-.93,1.43-2.66,3.09-7.18,3.09-6.16,0-8.75-4.05-8.75-8.01,0-5.82,4.67-8.5,12.16-8.5h3.64v-1.56c0-1.81-.65-3.6-3.93-3.6-2.98,0-3.64,1.27-3.96,3.12h-6.72c.38-4.54,3.19-8.21,10.95-8.17,6.84.04,10.56,2.72,10.56,8.79v10.74Zm-6.89-5.03h-2.88c-4.26,0-5.84,1.3-5.84,3.76,0,1.85,1.13,3.41,3.68,3.41,4.49,0,5.04-3.12,5.04-6.5v-.67Z"/>
        <path class="cls-1" d="m188.41,24.11h3.94v-6.91h7.07v6.91h5v5.31h-5v12.6c0,1.94.59,2.69,2.7,2.69.39,0,1.08,0,1.61-.08v4.86c-1.4.48-3.33.49-4.75.49-4.98,0-6.63-2.66-6.63-7.13v-13.43h-3.94v-5.31Z"/>
        <path class="cls-1" d="m213.82,41.97c.53,2.03,2.2,3.18,4.83,3.18s3.56-.94,3.56-2.48c0-1.64-1.1-2.28-4.75-3.18-8.32-2.05-9.68-4.63-9.68-8.23s2.65-7.73,10.35-7.73,10.37,4.23,10.59,7.69h-6.72c-.23-.94-.86-2.73-4.18-2.73-2.34,0-3.09,1.04-3.09,2.18,0,1.27.79,1.88,4.94,2.85,8.52,1.98,9.72,4.9,9.72,8.65,0,4.23-3.22,8.08-11,8.08s-10.95-3.74-11.51-8.27h6.95Z"/>
        <path class="cls-1" d="m255.44,43.05c0,2.43.2,5.98.34,6.6h-6.75c-.2-.5-.34-1.85-.36-2.5-.92,1.43-2.66,3.09-7.18,3.09-6.16,0-8.75-4.05-8.75-8.01,0-5.82,4.67-8.5,12.16-8.5h3.64v-1.56c0-1.81-.65-3.6-3.93-3.6-2.99,0-3.64,1.27-3.96,3.12h-6.72c.38-4.54,3.19-8.21,10.95-8.17,6.84.04,10.56,2.72,10.56,8.79v10.74Zm-6.89-5.03h-2.88c-4.26,0-5.84,1.3-5.84,3.76,0,1.85,1.13,3.41,3.68,3.41,4.49,0,5.04-3.12,5.04-6.5v-.67Z"/>
        <path class="cls-1" d="m268.86,47.38v12.04h-7.03v-29.16c0-2.07,0-4.11-.05-6.15h6.85c.1.68.23,2.24.23,3.18,1.09-1.87,3.37-3.77,7.42-3.77,5.73,0,10.17,4.8,10.17,12.72,0,9.01-4.95,14-11.14,14-3.6,0-5.48-1.36-6.45-2.85Zm10.42-10.88c0-4.68-1.89-7.32-5.26-7.32-4.01,0-5.44,2.58-5.44,7.72,0,4.87,1.32,7.71,5.14,7.71s5.56-2.91,5.56-8.11Z"/>
        <path class="cls-1" d="m298.36,47.38v12.04h-7.03v-29.16c0-2.07,0-4.11-.05-6.15h6.85c.1.68.23,2.24.23,3.18,1.09-1.87,3.37-3.77,7.42-3.77,5.73,0,10.17,4.8,10.17,12.72,0,9.01-4.95,14-11.14,14-3.6,0-5.48-1.36-6.45-2.85Zm10.42-10.88c0-4.68-1.89-7.32-5.26-7.32-4.01,0-5.44,2.58-5.44,7.72,0,4.87,1.32,7.71,5.14,7.71s5.56-2.91,5.56-8.11Z"/>
        <path class="cls-1" d="m362.15,36.88c0-5.8.09-12.31.24-16.15h-.23c-1.6,6.94-5,18.27-8.26,28.91h-6.26c-2.48-9.3-6-22.21-7.49-29h-.23c.29,3.99.43,10.99.43,16.82v12.18h-6.7V15.63h10.94c2.65,8.89,5.62,20.03,6.65,25.1h.05c.83-4.47,4.57-16.39,7.41-25.1h10.55v34.01h-7.09v-12.76Z"/>
        <path class="cls-1" d="m396.72,43.05c0,2.43.2,5.98.34,6.6h-6.75c-.2-.5-.34-1.85-.36-2.5-.92,1.43-2.66,3.09-7.18,3.09-6.16,0-8.75-4.05-8.75-8.01,0-5.82,4.67-8.5,12.16-8.5h3.64v-1.56c0-1.81-.65-3.6-3.93-3.6-2.99,0-3.64,1.27-3.96,3.12h-6.72c.38-4.54,3.19-8.21,10.95-8.17,6.84.04,10.56,2.72,10.56,8.79v10.74Zm-6.89-5.03h-2.88c-4.26,0-5.84,1.3-5.84,3.76,0,1.85,1.13,3.41,3.68,3.41,4.49,0,5.04-3.12,5.04-6.5v-.67Z"/>
        <path class="cls-1" d="m403.16,30.54c0-2.17,0-4.55-.05-6.43h6.85c.14.66.24,2.43.27,3.25.87-1.6,2.93-3.85,7.41-3.85,5.13,0,8.46,3.47,8.46,9.88v16.24h-7.07v-15.46c0-2.87-.96-4.95-4.08-4.95s-4.72,1.67-4.72,6.18v14.23h-7.07v-19.1Z"/>
        <path class="cls-1" d="m453.25,43.05c0,2.43.2,5.98.34,6.6h-6.75c-.2-.5-.34-1.85-.36-2.5-.92,1.43-2.66,3.09-7.18,3.09-6.16,0-8.75-4.05-8.75-8.01,0-5.82,4.67-8.5,12.16-8.5h3.64v-1.56c0-1.81-.65-3.6-3.93-3.6-2.99,0-3.64,1.27-3.96,3.12h-6.72c.38-4.54,3.19-8.21,10.95-8.17,6.84.04,10.56,2.72,10.56,8.79v10.74Zm-6.89-5.03h-2.88c-4.26,0-5.84,1.3-5.84,3.76,0,1.85,1.13,3.41,3.68,3.41,4.49,0,5.04-3.12,5.04-6.5v-.67Z"/>
        <path class="cls-1" d="m482.88,46.53c0,8.2-3.02,13.38-12.7,13.38s-11.16-5.21-11.41-8.09h7.21c.5,1.75,1.79,2.95,4.52,2.95,4.59,0,5.45-2.8,5.45-7.8v-1.22c-1.33,2.21-3.45,3.59-7.2,3.59-6.73,0-10.56-5.51-10.56-12.38,0-7.98,4.78-13.45,11.17-13.45,4.38,0,6.2,2.06,6.59,3.26.05-.69.23-2.25.28-2.66h6.71c-.04,2.28-.06,4.87-.06,7.33v15.1Zm-17.42-9.89c0,4.39,2.2,6.99,5.32,6.99,4.26,0,5.39-2.92,5.39-7.21s-.76-7.25-5.24-7.25c-3.07,0-5.47,2.37-5.47,7.47Z"/>
        <path class="cls-1" d="m494.97,38.39c0,3.19,1.61,6.31,5.12,6.31,2.94,0,3.78-1.18,4.46-2.73h7.08c-.91,3.13-3.69,8.26-11.72,8.26s-12.06-6.29-12.06-12.99c0-8.01,4.11-13.73,12.31-13.73,8.77,0,11.75,6.34,11.75,12.72,0,.86,0,1.42-.09,2.15h-16.85Zm9.86-4.34c-.05-2.97-1.24-5.47-4.68-5.47s-4.75,2.34-5.03,5.47h9.71Z"/>
        <path class="cls-1" d="m516.87,31.03c0-2.54,0-4.79-.05-6.93h6.93c.09.57.19,3.11.19,4.48,1.13-2.92,3.85-5.05,8.19-5.07v6.75c-5.13-.13-8.19,1.25-8.19,8.25v11.13h-7.07v-18.61Z"/>
      </g>
    </g>
  </g>
</svg>